<svg width="1028" height="923" viewBox="0 0 1028 923" fill="none" xmlns="http://www.w3.org/2000/svg">
<g clip-path="url(#clip0_2_2)">
<path d="M514 0L626.257 304.033H989.528L695.636 491.935L807.893 795.967L514 608.065L220.107 795.967L332.364 491.935L38.4717 304.033H401.743L514 0Z" fill="#AB5757"/>
<path d="M806.099 122.9L688.24 424.805L959.934 665.945L615.4 611.393L497.541 913.298L402.465 577.678L57.9305 523.126L343.706 370.253L248.63 34.6332L520.324 275.773L806.099 122.9Z" fill="#AB5757"/>
<path d="M886.123 273.063L677.902 521.421L858.209 836.786L549.214 674.914L340.994 923.272L358.245 574.872L49.2507 413L368.907 359.549L386.159 11.1488L566.466 326.514L886.123 273.063Z" fill="#AB5757"/>
<path d="M930.559 483.194L617.82 566.443L594.251 904.716L424.537 617.894L111.798 701.143L319.648 440.628L149.935 153.806L448.107 279.621L655.957 19.1071L632.387 357.379L930.559 483.194Z" fill="#AB5757"/>
</g>
<defs>
<clipPath id="clip0_2_2">
<rect width="1028" height="923" fill="white"/>
</clipPath>
</defs>
</svg>
